<svg width="100" height="100" xmlns="http://www.w3.org/2000/svg" xmlns:xlink="http://www.w3.org/1999/xlink"><defs><path id="a" d="M.883.895h4.875V10H.883z"/></defs><g fill="none" fill-rule="evenodd"><path d="M22.87 69.004s-1.75 0-.5 5.25 2 8.25 2 8.25.75 1.75 7.25.25 22.25-4.25 22.25-4.25l14.75 5.75 21.5-59.75-30.75-10.75 8.75 45.75-45.25 9.5z" fill="#FEFEFE"/><path d="M14.327 13.836l-2.667 1s-3.332-.668-1.666 6.666c1.666 7.334 11.666 49 11.666 49l2.667-1.333 43.667-9.333L55.66 5.502l-41.333 8.334z" fill="#6AC07A"/><path fill="#D4EAD2" d="M20.326 24.335l3 11 29.25-5.5-3-10.5z"/><path d="M91.326 42.085l-9 25" fill="#010202"/><path fill="#D4EAD2" d="M19.462 24.569l3 11 29.25-5.5-3-10.5z"/><path d="M40.116 72.348c-.351 0-.703-.135-.946-.404a1.265 1.265 0 0 1-.404-.944c0-.351.134-.704.404-.946.487-.512 1.404-.512 1.917 0 .241.242.378.595.378.946 0 .35-.137.7-.378.944a1.37 1.37 0 0 1-.971.404M28.104 91.273c-.35 0-.702-.135-.972-.378a1.42 1.42 0 0 1-.379-.974c0-.35.135-.7.38-.943.511-.513 1.43-.513 1.916 0 .242.243.404.593.404.943 0 .352-.162.702-.404.974a1.351 1.351 0 0 1-.945.378" fill="#231F20"/><g transform="translate(68 85.205)"><mask id="b" fill="#fff"><use xlink:href="#a"/></mask><path d="M1.517 9.927a1.01 1.01 0 0 1-.56-1.317l2.848-7.08a1.014 1.014 0 0 1 1.88.756l-2.85 7.079a1.013 1.013 0 0 1-1.318.562" fill="#231F20" mask="url(#b)"/></g><path d="M74.482 93.016l-7.08-2.85a1.013 1.013 0 0 1 .756-1.878l7.081 2.849a1.013 1.013 0 0 1-.757 1.879" fill="#231F20"/><path d="M71.513 74.358l-44.079 9.764c-3.007.666-3.932-.796-4.598-3.803l-1.192-4.777c-.666-3.007-.946-5.5 2.06-6.166l44.08-9.764L55.73 5.192l-44.078 9.765c-3.006.666-2.943 2.182-2.277 5.188l.12.544 11.91 53.764M67.727 59.322l3.812 15.691" stroke="#231F20" stroke-width="2"/><path stroke="#231F20" stroke-width="2" stroke-linecap="round" stroke-linejoin="round" d="M77.463 20.569l12.08 4.009-20.71 60.26-16.62-6.102"/><path d="M57.707 13.828l16.983 5.55" stroke="#231F20" stroke-width="2"/><path d="M81.795 21.486c.687-2.172-.437-4.143-2.61-4.83a4.125 4.125 0 0 0-5.176 2.689l-3.501 11.209a4.125 4.125 0 1 0 7.866 2.488l1.67-5.14s1.085-2.166-1.47-3.09c-2.28-.823-2.78 1.84-2.78 1.84l-1.396 4.04M68.629 64.694l-24.5 5.5M69.462 69.82l-14.25 3.25" stroke="#231F20" stroke-width="2" stroke-linecap="round" stroke-linejoin="round"/><path d="M62.962 37.069l12 4.25M64.712 44.569l8 2.25M65.962 51.319l5 1.5" stroke="#231F20" stroke-width="2" stroke-linecap="round"/><path stroke="#231F20" stroke-width="2" stroke-linecap="round" stroke-linejoin="round" d="M51.51 29.464l-29.423 5.854-2.39-10.6 29.424-5.856zM12.462 61.069l5 22.5s1.5 6 5 6.5"/><path d="M90.462 42.319l-9 25" fill="#010202"/><path d="M90.462 42.319l-9 25" stroke="#231F20" stroke-width="2" stroke-linecap="round" stroke-linejoin="round"/></g></svg>