<svg width="100" height="100" xmlns="http://www.w3.org/2000/svg" xmlns:xlink="http://www.w3.org/1999/xlink"><defs><path id="a" d="M0 .767h15.4v22.5H0z"/></defs><g fill="none" fill-rule="evenodd"><path d="M18 27.428l.25 16.25s-.75 16 21.5 14.75l1.75.5.25 16.25s1.25 13.75-5.25 15.75l32 .5s4-2 5-5.25c0 0 7.75-1.5 8.25-7s-.75-11.5-6.75-12l-1.75-7.75-30.25-.25.25-1.25s13-3.25 11.25-20.75l.25-7.25-17 .25s-8.5-3.75-9.75-6.5-10 3.75-10 3.75" fill="#FEFEFE"/><path d="M12.5 83.472l-.5 7.25h22.25s2.816-9.669-4.25-10.5c-4.25-.5-8.5 0-8.5 0l-1.75 3.25H12.5z" fill="#FEFEFE"/><path fill="#FEFEFE" d="M22 80.5l.5-6.75 3-8.75 3.75 8.75V81z"/><path d="M18.001 29.584s7-5.5 11-5.5c0 0 1 5.5 9 6h16.5s2-16.5-17.5-18-19 17.5-19 17.5" fill="#545654"/><path fill="#6AC07A" d="M68 27.5L75 41l10.5-15.5L81 23l-5.5 9-1.5-5.5z"/><g transform="translate(10 60)"><mask id="b" fill="#fff"><use xlink:href="#a"/></mask><path d="M1.9 22.767l5.5.5 3.5-3 1-7.5 3.5-9.5-2.5-2.5s-9.5.5-12 9 1 13 1 13" fill="#F16A67" mask="url(#b)"/></g><path d="M25 64l3.5 10-.5 7.5s5.5 3 5.5 9c0 0 3 2 6-3.5l.5-22s-12.5 1.5-15-1" fill="#F16A67"/><path d="M79.012 60.656c-.56 0-1.012-.453-1.012-1.013v-7.632a1.012 1.012 0 1 1 2.025 0v7.632c0 .56-.453 1.013-1.013 1.013" fill="#231F20"/><path d="M82.644 57.024h-7.632a1.013 1.013 0 0 1 0-2.024h7.632a1.012 1.012 0 1 1 0 2.024" fill="#231F20"/><path d="M54.252 28.435c0 .371-.011 14.983-.032 15.35-.572 9.771-8.68 15.328-18.594 15.328-9.307 0-17.018-4.634-18.403-13.552a18.254 18.254 0 0 1-.191-1.794c-.021-.36-.032-14.966-.032-15.332C17 18.149 25.34 12 35.626 12c10.287 0 18.626 6.149 18.626 16.435z" stroke="#231F20" stroke-width="2"/><path d="M54.252 30.121H38.091c-4.98 0-8.263-3.423-10.374-6.121 0 0-6.609.917-10.717 5.984" stroke="#231F20" stroke-width="2"/><path d="M29.424 37.712a1.713 1.713 0 1 1-3.425-.001 1.713 1.713 0 0 1 3.425.001M45.424 37.712a1.712 1.712 0 1 1-3.424 0 1.712 1.712 0 0 1 3.424 0" fill="#231F20"/><path d="M28 45h15.339s-.822 6.848-7.943 6.574C28.273 51.3 28 45 28 45z" stroke="#231F20" stroke-width="2" stroke-linecap="round" stroke-linejoin="round"/><path d="M73.489 81.456l.091 4.84s-.137 5.204-6.711 5.204H34s7.122 0 7.122-6.711S41.259 60 41.259 60H73.58v6.847" stroke="#231F20" stroke-width="2" stroke-linecap="round"/><path d="M40.582 64.287S30.174 66.478 22.504 61c0 0-11.504-.003-11.504 12.6v17.53h23.83M73.395 81.834c-5.112 0-7.395-2.925-7.395-7.123S68.809 68 73.008 68s7.324 2.315 7.601 6.506c.639 9.701-3.518 12.011-7.577 12.166" stroke="#231F20" stroke-width="2"/><path d="M71.913 68H50M65.408 75H55M71.913 84H50" stroke="#231F20" stroke-width="2" stroke-linecap="round" stroke-linejoin="round"/><path d="M52.374 75.187a1.186 1.186 0 1 1-2.373.001 1.186 1.186 0 0 1 2.373-.001" fill="#231F20"/><path stroke="#231F20" stroke-width="2" d="M21 80.763v-7.771L24.212 64l3.853 9.419v7.558M21 73s2.355 3.854 7.065.428M89.733 30.867c0 7.658-6.208 13.866-13.866 13.866C68.208 44.733 62 38.525 62 30.867 62 23.208 68.208 17 75.867 17c7.658 0 13.866 6.208 13.866 13.867z"/><path d="M57.739 52.369a1.37 1.37 0 1 1-2.74 0 1.37 1.37 0 0 1 2.74 0M22.739 10.369a1.37 1.37 0 1 1-2.74 0 1.37 1.37 0 0 1 2.74 0" fill="#231F20"/><path d="M66.615 47.808a2.808 2.808 0 1 1-5.617 0 2.808 2.808 0 0 1 5.617 0z" stroke="#231F20" stroke-width="2"/><path d="M80.988 22a2.005 2.005 0 0 0-1.657.88l-4.046 5.987-.707-1.571a2 2 0 0 0-1.824-1.18H69a1.998 1.998 0 0 0-1.773 2.927l5.57 10.656a2.003 2.003 0 0 0 1.677 1.072l.096.001c.674 0 1.306-.339 1.676-.908l8.596-13.198a2 2 0 0 0-.504-2.713l-2.18-1.574A1.998 1.998 0 0 0 80.988 22m0 2l2.18 1.574-8.597 13.198L69 28.116h3.753l2.179 4.844L80.988 24" fill="#231F20"/><path d="M18.002 90.258v-4s-.167-5.25 3-5.25h7.25s5.088-.544 5.472 7.073c.018.375.028 1.767.028 2.177M17.75 84H10" stroke="#231F20" stroke-width="2"/><path d="M26 21s2 5.667 8.667 9M33 20s3.667 7 10 9.667M16.666 14S11 20 11 28v14.667" stroke="#231F20" stroke-width="2" stroke-linecap="round"/></g></svg>