<svg width="100" height="100" xmlns="http://www.w3.org/2000/svg" xmlns:xlink="http://www.w3.org/1999/xlink"><defs><path id="a" d="M.815.895H2.84v9.655H.815z"/><path id="c" d="M0 .71h9.656v2.024H0z"/><path id="e" d="M0 96h85.482V.895H0z"/></defs><g fill="none" fill-rule="evenodd"><path fill="#BDBDC5" d="M18 82h54V13H18z"/><path fill="#FFF" d="M23 77h54V8H23z"/><g transform="translate(7 2)"><path d="M58.998 69.725l-9.5 10.5h16.5l.5-4.25h4v-14s-4.5 8-11.5 7.75" fill="#FEFEFE"/><path d="M62.498 55.475l-32 35s2.25 4 5.25 4.75l32-36.5-5.25-3.25z" fill="#BDBDC5"/><path d="M62.371 54.64l4.334 4.333-8.334 10s2.334 1.334 6.334-.666c0 0 18.332-21.666 19.666-29l-2.666-2S69.037 43.64 62.371 54.64" fill="#61C7CF"/><path d="M68.732 89.243c-.35 0-.702-.135-.972-.378a1.42 1.42 0 0 1-.379-.974c0-.35.135-.7.38-.943.511-.513 1.43-.513 1.916 0 .242.243.404.593.404.943 0 .352-.162.702-.404.974a1.351 1.351 0 0 1-.945.378M4.84 67.539c-.351 0-.702-.135-.972-.378a1.42 1.42 0 0 1-.38-.974c0-.35.136-.7.38-.943.512-.513 1.43-.513 1.917 0 .242.243.404.593.404.943 0 .352-.162.702-.404.974a1.351 1.351 0 0 1-.945.378M78.84 78.283a2.131 2.131 0 0 0-2.128 2.13 2.13 2.13 0 0 0 2.128 2.126 2.13 2.13 0 0 0 2.129-2.126c0-1.175-.956-2.13-2.13-2.13m0 6.28a4.157 4.157 0 0 1-4.151-4.15 4.158 4.158 0 0 1 4.152-4.154 4.158 4.158 0 0 1 4.152 4.154 4.157 4.157 0 0 1-4.152 4.15" fill="#231F20"/><g transform="translate(3)"><mask id="b" fill="#fff"><use xlink:href="#a"/></mask><path d="M1.828 10.55A1.012 1.012 0 0 1 .815 9.539V1.906a1.013 1.013 0 0 1 2.025 0v7.633c0 .559-.453 1.01-1.012 1.01" fill="#231F20" mask="url(#b)"/></g><g transform="translate(0 4)"><mask id="d" fill="#fff"><use xlink:href="#c"/></mask><path d="M8.645 2.734H1.013a1.012 1.012 0 1 1 0-2.024h7.632a1.013 1.013 0 0 1 0 2.024" fill="#231F20" mask="url(#d)"/></g><path stroke="#231F20" stroke-width="2" d="M69.84 62.207v13.832H52.589"/><path stroke="#231F20" stroke-width="2" stroke-linecap="round" stroke-linejoin="round" d="M43.59 76.039H15.34v-70.5h54.5v39.667"/><path stroke="#231F20" stroke-width="2" d="M39.839 80.372H10.673v-69.5h3.835M65.173 76.206v4.166H48.589"/><mask id="f" fill="#fff"><use xlink:href="#e"/></mask><path stroke="#231F20" stroke-width="2" stroke-linecap="round" stroke-linejoin="round" mask="url(#f)" d="M22.34 44.227h7.875v-7.875H22.34zM22.34 62.727h7.875v-7.875H22.34zM35.423 18.852h27.5M35.423 25.78h27.5M35.423 36.852h27.5M35.423 43.78h27.5M35.423 54.852h27.5M35.423 61.78h20.5M35 95c-4.077-.711-4.778-4.311-4.778-4.311l32.704-36.028 4.779 4.312L35 95z"/><path d="M65.58 57.055l-3.348-3.018s9.61-13.164 19.942-17.164l2.308 2.314s-2.308 8.436-13.807 22.22l-6.21 6.882s-2.913 2.645-6.06 1.713M4.84 73.539v12h10M22.34 26.227h7.875v-7.875H22.34z" stroke="#231F20" stroke-width="2" stroke-linecap="round" stroke-linejoin="round" mask="url(#f)"/></g></g></svg>